<svg width="1134" height="298" viewBox="0 0 1134 298" fill="none" xmlns="http://www.w3.org/2000/svg">
<path d="M0.621094 4.56299H71.6735C125.783 4.56299 155.906 32.762 155.906 79.775V215.88C155.906 269.822 123.915 295.588 67.4316 295.588H0.621094V4.56299ZM48.6206 256.337H70.7393C97.5544 256.337 107.907 244.891 107.907 219.959V79.775C107.907 56.8825 98.9684 43.8136 70.7393 43.8136H48.6206V256.337V256.337Z" fill="#1D1D1D"/>
<path d="M164.188 73.219C164.188 25.8113 205.597 2.10742 244.658 2.10742C283.719 2.10742 325.129 25.8113 325.129 73.219V226.888C325.129 274.296 283.719 298 244.658 298C205.597 298 164.188 274.296 164.188 226.888V73.219ZM212.187 226.91C212.187 246.93 227.236 256.337 244.658 256.337C262.08 256.337 277.129 246.93 277.129 226.91V73.219C277.129 53.199 262.08 43.792 244.658 43.792C227.236 43.792 212.187 53.199 212.187 73.219V226.91Z" fill="#1D1D1D"/>
<path d="M334.421 73.219C334.421 25.8113 375.831 2.10742 414.892 2.10742C453.953 2.10742 495.363 25.8113 495.363 73.219V87.9325H447.363V73.219C447.363 53.199 432.314 43.792 414.892 43.792C397.47 43.792 382.421 53.199 382.421 73.219V226.888C382.421 246.908 397.47 256.315 414.892 256.315C432.314 256.315 447.363 246.908 447.363 226.888V172.135H409.236V135.34H495.363V226.888C495.363 274.296 453.953 298 414.892 298C375.831 298 334.421 274.296 334.421 226.888V73.219Z" fill="#1D1D1D"/>
<path d="M638.806 4.56299H709.858C763.968 4.56299 794.091 32.762 794.091 79.775V215.88C794.091 269.822 762.099 295.588 705.616 295.588H638.78V4.56299H638.806ZM686.805 256.337H708.924C735.739 256.337 746.091 244.891 746.091 219.959V79.775C746.091 56.8825 737.153 43.8136 708.924 43.8136H686.805V256.337Z" fill="#1D1D1D"/>
<path d="M802.829 71.1793C802.829 23.7716 844.238 0.067749 883.3 0.067749C922.361 0.067749 963.77 23.7716 963.77 71.1793V224.849C963.77 272.256 922.361 295.96 883.3 295.96C844.238 295.96 802.829 272.256 802.829 224.849V71.1793ZM850.854 224.849C850.854 244.869 865.903 254.276 883.325 254.276C900.747 254.276 915.796 244.869 915.796 224.849V71.1793C915.796 51.1593 900.747 41.7523 883.325 41.7523C865.903 41.7523 850.854 51.1593 850.854 71.1793V224.849Z" fill="#1D1D1D"/>
<path d="M973.059 71.1793C973.059 23.7716 1014.47 0.067749 1053.53 0.067749C1092.59 0.067749 1134 23.7716 1134 71.1793V85.8928H1086V71.1793C1086 51.1593 1070.95 41.7523 1053.53 41.7523C1036.11 41.7523 1021.06 51.1593 1021.06 71.1793V224.849C1021.06 244.869 1036.11 254.276 1053.53 254.276C1070.95 254.276 1086 244.869 1086 224.849V170.095H1047.87V133.301H1134V224.849C1134 272.256 1092.59 295.96 1053.53 295.96C1014.47 295.96 973.059 272.256 973.059 224.849V71.1793Z" fill="#1D1D1D"/>
<path d="M591.263 139.681L540.233 140.405C533.593 140.493 530.537 144.418 530.613 148.913C530.689 153.408 533.896 157.245 540.536 157.158L591.566 156.434C598.206 156.346 601.262 152.421 601.186 147.926C601.11 143.431 597.929 139.594 591.263 139.681Z" fill="#FEBE51"/>
<path d="M570.934 194.786L571.085 202.702C571.262 212.394 576.716 213.82 586.361 213.688C596.133 213.556 601.41 211.846 601.208 201.606L601.082 194.37L570.934 194.786Z" fill="#FEBE51"/>
<path d="M623.278 176.279L622.016 130.779L621.384 86.1998L620.955 53.1328L620.526 31.2051C620.728 18.5967 611.689 18.7721 611.689 18.7721L505.438 23.3331L503.974 23.1576L504.176 28.815L505.438 79.9723L505.867 249.539L506.701 278.418L507.963 295.785L508.392 296.508L523.971 294.688L546.065 292.32L596.766 291.772L605.174 290.5L611.689 289.228L614.415 288.68L618.632 285.567L619.693 284.843L620.753 283.922L622.445 282.65L623.505 280.633L623.935 278.44L624.137 276.795L624.566 274.054V271.314L624.768 263.266L625.399 251.206L623.278 176.279ZM516.27 84.029L612.926 82.6694L613.608 119.596L600.579 119.771L600.124 95.234L570.809 95.6506L571.213 117.03L558.185 117.206L557.781 95.8261L516.523 96.3962L516.27 84.029ZM586.363 227.634C575.228 227.787 567.022 224.761 561.972 215.946L518.139 231.581L517.861 216.823L558.892 203.272L558.74 194.939L517.482 195.509L517.23 181.585L613.885 180.226L614.315 202.614C614.567 219.169 605.073 227.37 586.363 227.634ZM591.817 168.845L540.788 169.569C525.032 169.788 516.977 159.219 516.775 149.132C516.598 139.046 524.249 128.257 540.005 128.038L591.034 127.314C606.79 127.095 614.845 137.664 615.047 147.751C615.223 157.816 607.548 168.626 591.817 168.845Z" fill="#FEBE51"/>
</svg>
