<svg width="131" height="43" viewBox="0 0 131 43" fill="none" xmlns="http://www.w3.org/2000/svg">
<path d="M109.343 7.22317C110.578 7.45002 111.702 7.64821 112.813 7.8682C117.405 8.76965 121.56 10.02 124.876 11.9281C129.381 14.5266 130.072 17.7992 126.884 21.3039C125.239 23.1099 122.883 24.64 120.118 26.003C114.692 28.6755 108.444 30.5711 101.925 32.1895C92.3742 34.562 82.5157 36.1922 72.3965 37.2834C61.4706 38.4624 50.5633 39.0102 39.6639 38.9857C31.718 38.9671 23.8828 38.5919 16.4728 37.3426C13.5419 36.8503 10.6292 36.1991 8.1157 35.3096C1.45348 32.958 -0.251787 28.65 3.49043 24.4227C5.35065 22.3182 8.06466 20.5159 11.1312 18.8559C18.37 14.9278 26.9183 12.1445 36.045 9.90025C48.5457 6.82546 61.4543 4.95754 74.712 4.14778C83.5351 3.60915 92.3002 3.40645 100.9 4.04099C103.442 4.22812 105.914 4.59887 108.396 4.91491C109.007 4.99158 109.608 5.13532 110.133 5.30976C111.567 5.77803 111.53 6.27804 110.057 6.95207C109.87 7.03706 109.659 7.10327 109.335 7.22377L109.343 7.22317ZM71.3043 6.47648L71.2642 6.36361C70.778 6.38909 70.2827 6.3987 69.7975 6.43652C59.0655 7.33109 48.5946 8.95928 38.429 11.3922C29.5789 13.5113 21.249 16.1201 14.1419 19.8557C11.2797 21.3589 8.70639 22.9846 6.92459 24.909C3.62362 28.4598 5.06162 31.956 10.8185 33.8478C12.9366 34.5444 15.3344 35.0576 17.7466 35.462C24.3232 36.565 31.265 36.9145 38.288 37.0216C48.3532 37.1774 58.4642 36.6544 68.5733 35.7255C80.4598 34.6374 92.0256 32.7457 103.134 29.8001C108.354 28.4155 113.364 26.8195 117.754 24.6669C120.468 23.3369 122.757 21.8328 124.151 20.009C125.707 17.9738 125.69 16.0446 123.545 14.3394C122.717 13.6831 121.699 13.083 120.595 12.5601C117.138 10.9281 113.001 9.90005 108.491 9.23667C102.858 8.40392 97.0593 7.90728 91.1233 7.72788C83.1982 7.48811 75.2629 7.69655 67.3611 9.17834C66.9639 9.25073 66.4766 9.35913 66.1538 9.2973C65.603 9.19524 64.8691 9.03289 64.7248 8.78315C64.5893 8.54515 64.9558 8.09403 65.3557 7.864C65.7925 7.6104 66.5021 7.47223 67.1263 7.33243C68.5047 7.03027 69.9089 6.75925 71.3043 6.47648V6.47648ZM96.0899 5.89078C99.8774 6.2418 103.665 6.58871 107.46 6.93913C103.944 6.01597 100.082 5.80741 96.0899 5.89078Z" fill="#FEBE51"/>
</svg>
